# xmcd
#
# Track frame offsets: 
#        150
#        32023
#        64833
#        94267
#        123740
#        152156
#        184661
#        214095
#        246978
#        280871
#
# Disc length: 4196 seconds
#
# Revision: 0
# Processed by: cddbd v1.5.1PL2 Copyright (c) Steve Scherf et al.
# Submitted via: ExactAudioCopy v0.95b2
#
DISCID=9210620a
DTITLE=Various Artist - czqgc
DYEAR=1900
DGENRE=
TTITLE0=月亮代表我的心&小城故事(慢四)
TTITLE1=我只在乎你&水上人(中四)
TTITLE2=但愿人长久&海韵(探戈)
TTITLE3=何日君再来&又见炊烟(恰恰)
TTITLE4=情人的眼泪&翠湖寒(慢三)
TTITLE5=一封情书&原乡情浓(快四)
TTITLE6=一帘幽梦&哭不出来(慢四)
TTITLE7=花好月圆&甜蜜蜜(伦巴)
TTITLE8=相恋的地方&想你想断肠(中三)
TTITLE9=漫步人生路&原乡人(古特帕)
EXTD=
EXTT0=
EXTT1=
EXTT2=
EXTT3=
EXTT4=
EXTT5=
EXTT6=
EXTT7=
EXTT8=
EXTT9=
PLAYORDER=
